<svg xmlns="http://www.w3.org/2000/svg" x="0px" y="0px"
     width="33" height="32"
     viewBox="0 0 172 172"
     style=" fill:#000000;">
    <g transform="translate(3.87,3.87) scale(0.955,0.955)">
        <g fill="none" stroke="none" stroke-width="none"
           stroke-miterlimit="10" stroke-dasharray="" stroke-dashoffset="0" font-family="none"
           font-size="none" style="mix-blend-mode: normal">
            <g fill="#000000" stroke="#666666" stroke-width="8" stroke-linejoin="round">
                <path d="M150.93,31.25563c0.72563,1.16906 0.68531,2.66062 -0.1075,3.78937l-72.5625,112.445c-0.5375,0.84656 -1.41094,1.41094 -2.40531,1.55875c-0.99437,0.14781 -2.00219,-0.14781 -2.75469,-0.80625l-51.2775,-46.44c-1.16906,-0.72562 -1.78719,-2.06937 -1.58562,-3.42656c0.20156,-1.35719 1.1825,-2.4725 2.51281,-2.82187c1.33031,-0.34938 2.74125,0.12094 3.58781,1.19594l48.375,43.645l70.305,-109.005c0.47031,-0.80625 1.24969,-1.38406 2.15,-1.6125c0.1075,-0.04031 0.215,-0.08062 0.3225,-0.1075c1.35719,-0.20156 2.71438,0.41656 3.44,1.58563z"/>
            </g>
            <path d="M0,172v-172h172v172z" fill="none" stroke="none" stroke-width="1"/>
            <g fill="#000000" stroke="none" stroke-width="1">
                <path d="M147.49,29.67c-0.1075,0.02688 -0.215,0.06719 -0.3225,0.1075c-0.90031,0.22844 -1.67969,0.80625 -2.15,1.6125l-70.305,109.005l-48.375,-43.645c-0.84656,-1.075 -2.2575,-1.54531 -3.58781,-1.19594c-1.33031,0.34937 -2.31125,1.46469 -2.51281,2.82187c-0.20156,1.35719 0.41656,2.70094 1.58562,3.42656l51.2775,46.44c0.7525,0.65844 1.76031,0.95406 2.75469,0.80625c0.99438,-0.14781 1.86781,-0.71219 2.40531,-1.55875l72.5625,-112.445c0.79281,-1.12875 0.83313,-2.62031 0.1075,-3.78937c-0.72562,-1.16906 -2.08281,-1.78719 -3.44,-1.58563z"/>
            </g>
            <path d="" fill="none" stroke="none" stroke-width="1"/>
            <path d="" fill="none" stroke="none" stroke-width="1"/>
        </g>
    </g>
</svg>